<!DOCTYPE svg PUBLIC "-//W3C//DTD SVG 20010904//EN" "http://www.w3.org/TR/2001/REC-SVG-20010904/DTD/svg10.dtd">
<svg version="1.0" xmlns="http://www.w3.org/2000/svg" width="1200px" height="615px" viewBox="0 0 12000 6150" preserveAspectRatio="xMidYMid meet">
<g id="layer101" fill="#145c9d" stroke="none">
 <path d="M2615 6096 c-358 -124 -633 -248 -884 -398 -571 -342 -1065 -785 -1348 -1208 -241 -361 -383 -879 -383 -1400 0 -375 63 -727 188 -1057 47 -123 165 -334 263 -469 274 -379 757 -800 1266 -1104 264 -158 580 -300 915 -411 l148 -49 3220 0 3220 0 148 49 c426 141 800 322 1129 547 275 188 483 355 677 544 238 231 388 419 523 657 273 481 374 1211 253 1833 -108 558 -322 939 -777 1381 -143 138 -275 251 -448 380 -437 327 -815 525 -1360 713 l-120 41 -3240 2 -3240 1 -150 -52z"/>
 </g>
<g id="layer102" fill="#d5def1" stroke="none">
 <path d="M2680 6119 c-138 -47 -170 -60 -170 -71 0 -7 19 -8 53 -4 28 3 219 7 422 10 204 2 345 2 315 0 -176 -12 -286 -26 -300 -39 -9 -8 -54 -21 -101 -30 l-84 -15 82 4 c60 3 85 0 93 -9 19 -22 -15 -32 -145 -43 -68 -6 -121 -15 -123 -21 -2 -6 -25 -11 -50 -11 -54 0 -94 -9 -88 -19 3 -4 48 -2 100 4 55 7 102 8 111 3 8 -5 20 -6 25 -3 6 3 10 1 10 -5 0 -6 -11 -16 -25 -22 -35 -16 -31 -28 11 -28 19 0 45 -5 56 -11 12 -7 84 -13 167 -14 80 -2 189 -4 241 -6 52 -1 101 -6 107 -12 9 -6 26 -4 52 7 29 11 41 12 43 4 3 -9 15 -9 49 1 48 15 232 24 224 11 -3 -4 -34 -16 -70 -25 -101 -28 -93 -39 21 -30 122 10 214 7 230 -6 8 -7 18 -7 31 0 26 15 163 29 170 18 6 -9 87 -2 120 10 12 5 15 2 10 -10 -4 -12 -1 -17 12 -17 10 0 21 3 25 7 10 10 109 3 124 -9 19 -16 15 -25 -28 -68 -22 -22 -34 -40 -26 -40 19 0 9 -37 -14 -53 -17 -12 -16 -16 18 -53 40 -44 90 -79 99 -70 4 3 -2 15 -11 25 -10 11 -15 24 -12 29 3 5 -1 15 -9 22 -8 7 -15 9 -15 4 0 -5 -7 2 -16 14 -13 19 -13 26 -3 38 7 8 18 13 26 10 7 -3 22 2 32 12 29 28 58 50 81 62 12 6 19 17 17 25 -7 17 12 35 36 35 13 0 17 5 13 16 -3 9 -6 23 -6 32 0 19 -66 52 -103 52 -13 0 -28 5 -33 10 -10 10 -156 -4 -176 -16 -3 -2 -9 0 -12 5 -8 13 67 41 109 41 19 0 35 4 35 10 0 9 -90 6 -142 -5 -10 -2 -21 1 -24 6 -3 5 15 9 40 9 28 0 46 5 46 11 0 12 -69 8 -102 -6 -10 -4 -18 -3 -18 3 0 13 50 22 121 22 48 0 57 3 53 15 -5 12 2 15 29 15 19 0 58 4 86 10 29 5 103 14 164 20 62 6 126 16 144 22 25 9 38 9 60 -1 15 -7 82 -17 148 -21 66 -5 158 -16 205 -24 47 -9 102 -16 123 -16 29 0 37 -4 37 -18 0 -16 -7 -18 -60 -14 -32 2 -71 1 -86 -2 -60 -15 36 -58 161 -71 86 -9 159 -27 168 -42 4 -7 16 -13 26 -13 9 0 26 -7 37 -15 18 -15 18 -15 -8 -9 -16 3 -28 2 -28 -2 0 -8 27 -22 74 -38 11 -4 16 -12 12 -22 -3 -9 -2 -12 5 -9 5 4 17 1 25 -6 11 -9 18 -8 33 5 18 17 20 17 40 -3 22 -22 47 -29 35 -10 -8 13 101 9 265 -11 70 -9 100 -9 121 0 20 8 34 9 48 1 11 -6 21 -8 24 -6 2 2 27 1 56 -4 32 -5 75 -4 114 4 53 9 81 9 171 -6 59 -9 119 -24 132 -33 30 -20 49 -20 64 -2 20 24 70 28 100 8 29 -20 172 -57 210 -54 13 1 30 -3 37 -9 7 -6 19 -9 25 -7 7 2 22 -6 35 -19 33 -33 111 -33 143 1 19 21 36 24 159 35 75 7 139 15 142 18 7 7 -62 63 -80 64 -10 0 -9 3 5 9 l20 8 -20 7 c-60 20 -72 45 -22 45 22 0 46 -9 64 -23 37 -31 89 -53 140 -61 23 -3 63 -17 89 -31 26 -14 60 -25 75 -25 16 0 29 -4 29 -10 0 -6 30 -10 70 -10 44 0 82 -6 101 -15 16 -9 34 -13 40 -9 15 9 250 7 274 -3 39 -16 183 -5 208 15 10 9 22 7 50 -8 40 -22 107 -27 107 -9 0 7 9 9 21 6 12 -3 22 0 26 9 3 8 8 12 12 10 3 -2 52 -7 107 -10 56 -3 109 -8 117 -11 8 -4 17 1 20 9 8 20 45 21 66 2 10 -9 41 -16 76 -17 45 -1 66 -7 84 -23 l23 -21 -6 21 c-6 20 -1 22 84 33 62 9 96 19 108 31 9 10 32 21 50 25 17 3 32 11 32 16 0 5 16 9 35 9 19 0 35 -4 35 -10 0 -5 5 -10 11 -10 6 0 8 7 5 16 -3 9 -2 12 5 9 14 -9 55 2 73 20 9 9 39 19 68 22 29 3 60 11 68 18 8 7 21 14 29 17 18 5 -121 58 -153 58 -12 0 -47 8 -77 17 -67 21 -65 20 -89 22 -11 0 -20 8 -20 17 0 8 -5 12 -10 9 -17 -11 -103 28 -128 56 -18 22 -34 28 -85 34 -34 3 -87 13 -117 22 -45 12 -55 19 -56 38 -2 30 27 43 127 57 44 6 79 14 79 18 0 4 -62 28 -137 54 l-138 46 -3205 -1 -3205 -1 -85 -29z"/>
 <path d="M4683 5953 c-29 -2 -53 -7 -53 -11 0 -4 22 -5 50 -4 32 3 50 0 50 -7 0 -6 5 -11 10 -11 6 0 10 9 10 20 0 11 -3 19 -7 18 -5 -1 -32 -3 -60 -5z"/>
 <path d="M4890 5950 c0 -6 9 -10 20 -10 12 0 24 -10 29 -24 11 -27 30 -36 73 -36 37 0 86 46 69 63 -14 14 -191 20 -191 7z"/>
 <path d="M2565 5920 c-7 -12 48 -12 85 0 20 6 14 8 -27 9 -28 1 -55 -3 -58 -9z"/>
 <path d="M4510 5921 c0 -10 25 -21 48 -21 15 1 14 3 -2 15 -22 17 -46 20 -46 6z"/>
 <path d="M3135 5773 c-35 -8 -48 -13 -42 -19 8 -8 77 7 77 17 0 9 -2 10 -35 2z"/>
 <path d="M3205 5769 c-5 -7 5 -8 32 -3 51 9 54 14 10 14 -20 0 -39 -5 -42 -11z"/>
 <path d="M3508 5768 c-16 -5 -28 -14 -28 -19 0 -12 17 -12 25 1 3 6 15 10 26 10 10 0 19 5 19 10 0 12 -6 12 -42 -2z"/>
 <path d="M3660 5720 c-53 -6 -52 -7 28 -8 49 -1 82 2 82 8 0 11 -23 11 -110 0z"/>
 <path d="M4325 5720 c18 -7 18 -9 3 -15 -9 -3 -26 -1 -37 5 -12 6 -26 8 -31 5 -18 -11 0 -25 31 -25 16 0 29 -4 29 -10 0 -5 -7 -10 -15 -10 -8 0 -15 -6 -15 -14 0 -8 -6 -16 -12 -19 -10 -3 -10 -7 -1 -17 10 -11 19 -8 47 13 19 15 38 27 42 27 13 0 54 51 49 61 -4 5 -30 9 -58 8 -37 0 -46 -3 -32 -9z"/>
 <path d="M4205 5680 c11 -5 29 -9 40 -9 l20 0 -20 9 c-11 5 -29 9 -40 9 l-20 0 20 -9z"/>
 <path d="M4302 5569 c2 -7 10 -15 17 -17 8 -3 12 1 9 9 -2 7 -10 15 -17 17 -8 3 -12 -1 -9 -9z"/>
 <path d="M4145 5160 c3 -5 13 -10 21 -10 8 0 12 5 9 10 -3 6 -13 10 -21 10 -8 0 -12 -4 -9 -10z"/>
 <path d="M4090 5151 c0 -5 5 -11 11 -13 6 -2 -11 -5 -37 -6 -26 -1 -53 -7 -58 -13 -8 -8 -1 -10 29 -5 31 5 36 4 22 -4 -9 -6 -14 -16 -11 -22 7 -11 -11 -8 -47 6 -10 4 -23 0 -33 -9 -21 -21 -22 -42 -1 -25 9 7 19 10 22 6 12 -12 -20 -26 -44 -19 -13 3 -23 1 -23 -3 0 -5 -12 -22 -26 -39 -33 -39 -58 -91 -51 -109 3 -8 -1 -17 -9 -20 -8 -3 -14 -15 -14 -26 0 -11 -3 -19 -7 -19 -5 1 -17 1 -28 0 -18 -1 -19 -2 -2 -12 9 -5 21 -8 26 -5 13 8 20 -57 8 -72 -5 -7 -11 -30 -12 -50 -2 -27 -8 -40 -25 -49 -31 -16 -40 -32 -40 -76 0 -21 -4 -46 -9 -55 -5 -10 -6 -57 -2 -107 5 -58 4 -104 -3 -130 -7 -22 -10 -60 -9 -85 2 -25 2 -83 1 -130 -1 -47 -1 -114 0 -150 3 -77 -14 -150 -35 -150 -8 0 -17 -8 -20 -19 -2 -10 -26 -28 -53 -41 -77 -36 -95 -58 -166 -195 -37 -71 -73 -143 -81 -158 -9 -16 -25 -32 -38 -37 -34 -13 -39 -74 -9 -109 22 -27 22 -27 3 -39 -26 -16 -25 -68 1 -84 11 -7 20 -18 20 -24 0 -7 11 -19 25 -28 14 -9 25 -23 25 -32 0 -8 6 -17 14 -20 9 -4 16 -31 21 -83 6 -64 4 -84 -12 -117 -23 -50 -50 -56 -66 -15 -13 37 -17 37 -47 11 -13 -11 -33 -20 -45 -20 -14 0 -25 -8 -28 -20 -3 -11 -19 -25 -35 -31 -22 -7 -29 -16 -29 -34 0 -30 -53 -95 -73 -89 -8 2 -28 -3 -44 -11 -15 -8 -36 -15 -46 -15 -18 0 -80 -62 -80 -80 0 -13 -47 -13 -55 0 -11 19 -60 10 -120 -22 -33 -17 -78 -40 -100 -52 -68 -35 -87 -58 -81 -97 8 -54 -12 -107 -60 -159 -24 -26 -41 -50 -37 -53 7 -8 -16 -56 -34 -72 -6 -5 -17 -37 -25 -69 -11 -44 -20 -61 -36 -67 -20 -8 -22 -5 -22 31 0 22 4 40 8 40 8 0 21 42 44 144 6 27 20 58 30 68 20 20 16 38 -9 38 -9 0 -13 -3 -10 -7 4 -3 0 -15 -10 -25 -9 -10 -19 -35 -22 -55 -4 -24 -14 -41 -28 -48 -11 -6 -28 -17 -38 -25 -16 -13 -15 -14 5 -22 16 -6 20 -13 15 -26 -22 -51 -35 -97 -39 -131 -4 -47 -23 -77 -59 -90 -15 -6 -26 -14 -25 -18 1 -5 -4 -19 -11 -32 -11 -20 -11 -25 0 -32 9 -6 10 -12 4 -16 -17 -14 -18 -131 0 -155 8 -13 15 -30 15 -39 0 -10 20 -41 46 -71 52 -61 74 -101 74 -134 0 -20 4 -23 36 -20 22 1 38 -2 41 -10 8 -21 -19 -72 -44 -85 -26 -14 -29 -29 -11 -47 10 -10 10 -15 -1 -21 -7 -5 -10 -14 -7 -20 4 -6 0 -11 -11 -11 -17 -1 -17 -1 0 -15 11 -7 18 -24 16 -37 -1 -13 1 -36 6 -51 12 -44 -7 -53 -44 -22 -31 27 -35 23 -22 -25 5 -17 1 -31 -13 -47 -21 -25 -80 -48 -96 -38 -6 4 -27 -3 -46 -14 -42 -25 -54 -26 -54 -6 0 8 -6 15 -13 15 -8 0 -39 8 -70 18 -66 22 -96 13 -42 -12 20 -10 34 -20 32 -22 -3 -3 -22 4 -43 15 -21 12 -44 21 -51 21 -7 0 -24 11 -39 25 -15 14 -35 25 -45 25 -10 0 -21 5 -24 10 -3 6 -17 10 -29 10 -13 0 -29 7 -36 15 -7 8 -22 15 -34 15 -12 0 -31 7 -42 15 -12 8 -46 19 -75 24 -30 6 -67 13 -84 17 -23 5 -27 4 -19 -5 6 -7 46 -21 90 -32 43 -11 88 -26 101 -34 12 -8 27 -15 32 -15 6 0 25 -9 43 -21 l33 -20 -30 2 c-16 1 -46 1 -65 0 l-35 -2 23 -18 c30 -26 28 -32 -8 -24 -23 4 -30 2 -30 -11 0 -9 5 -16 10 -16 6 0 10 -6 10 -13 0 -17 95 -64 144 -71 22 -3 42 -9 45 -14 3 -5 15 -12 26 -17 16 -7 10 -10 -30 -15 -68 -7 -68 -30 0 -48 90 -25 98 -26 91 -13 -11 17 29 14 44 -4 7 -8 9 -15 4 -15 -5 0 -14 -11 -21 -25 -10 -23 -9 -26 15 -31 15 -3 61 -16 102 -29 41 -13 102 -26 135 -30 33 -3 72 -11 87 -17 18 -7 33 -6 47 2 19 9 143 29 221 34 29 2 73 13 113 28 19 7 31 7 40 0 13 -11 146 -36 154 -29 2 3 -19 10 -46 17 -28 7 -51 17 -51 22 0 6 8 7 18 3 18 -8 71 -23 112 -32 14 -3 31 -10 38 -16 9 -7 16 -5 26 9 12 16 16 16 31 4 10 -8 19 -10 23 -4 4 5 25 10 47 10 112 3 198 27 146 41 -41 10 -20 18 39 15 39 -3 66 1 76 9 11 9 18 9 26 1 7 -7 22 -12 35 -12 13 0 23 -5 23 -10 0 -6 -12 -8 -27 -4 -22 4 -25 3 -13 -5 18 -13 70 -15 70 -2 0 21 135 34 152 14 6 -7 21 -13 35 -13 20 0 23 4 18 20 -7 23 10 28 18 6 3 -8 16 -16 29 -18 13 -2 22 -9 21 -16 -2 -6 4 -12 12 -12 8 0 15 -4 15 -10 0 -5 -7 -10 -15 -10 -20 0 -19 -13 3 -32 28 -25 60 -38 76 -32 19 7 21 50 4 57 -7 3 -4 6 6 6 16 1 17 4 8 13 -21 21 -13 29 12 13 16 -11 26 -13 31 -5 3 5 -1 13 -9 16 -21 8 -20 34 1 34 21 0 103 -48 103 -60 0 -6 12 -11 28 -11 15 -1 3 -6 -28 -11 -66 -12 -89 -28 -39 -28 l34 -1 -29 -12 -29 -13 27 -21 c33 -26 132 -51 146 -37 7 7 34 7 73 2 71 -9 117 -2 117 16 0 16 32 46 50 46 30 0 90 34 90 52 0 28 -4 33 -22 31 -34 -5 -18 16 18 23 19 4 38 13 41 20 3 8 16 14 29 14 31 0 30 20 -1 43 -35 25 -81 33 -88 14 -10 -25 -43 -39 -56 -23 -8 10 -5 20 14 40 30 33 31 38 5 61 -18 16 -21 17 -44 1 -36 -23 -53 -20 -22 5 14 11 24 25 20 30 -6 11 -51 2 -81 -17 -12 -8 -30 -14 -39 -14 -13 0 -14 -3 -4 -15 10 -12 10 -15 -4 -15 -9 0 -16 -4 -16 -10 0 -23 -107 -5 -113 19 -3 9 -5 2 -6 -16 -1 -27 3 -32 27 -37 15 -3 34 -5 42 -4 36 3 60 -3 60 -15 0 -7 15 -20 32 -28 18 -8 34 -22 36 -31 4 -22 -36 -44 -51 -29 -8 8 -5 11 11 11 12 0 22 5 22 11 0 6 -8 8 -19 4 -11 -3 -22 -1 -26 5 -6 10 -55 15 -55 5 0 -3 13 -18 30 -33 28 -27 29 -30 12 -45 -13 -12 -22 -13 -35 -5 -10 5 -36 8 -58 6 -21 -2 -39 0 -39 4 0 5 5 8 11 8 6 0 9 6 7 13 -3 6 -11 12 -19 12 -8 0 -13 8 -13 18 2 23 -40 51 -66 44 -11 -3 -20 -1 -20 5 0 6 -11 7 -27 4 -14 -4 -29 -4 -32 1 -3 4 -27 23 -53 41 -44 31 -66 38 -125 41 -14 1 -23 7 -23 17 0 11 -6 14 -20 9 -11 -3 -20 -2 -20 2 0 5 -28 28 -62 51 -73 48 -99 80 -75 94 12 6 14 15 7 38 -8 28 -7 30 16 24 28 -7 80 12 88 32 3 8 14 14 25 14 11 0 23 5 26 10 3 6 22 10 41 10 39 0 39 -1 19 46 -16 38 -12 76 10 94 21 18 62 -28 72 -79 7 -37 13 -46 36 -52 78 -21 130 -87 91 -116 -17 -12 -16 -15 14 -41 17 -15 35 -43 40 -62 l8 -35 65 -3 c53 -2 68 1 86 18 12 11 29 20 38 20 19 0 19 5 -2 37 -16 24 -16 26 3 40 26 19 62 9 100 -29 36 -34 36 -33 55 40 11 46 11 55 -1 63 -12 8 -12 12 -2 16 7 2 18 10 25 16 6 7 24 18 40 26 15 8 27 23 27 33 0 10 7 18 15 18 30 0 17 49 -17 70 -18 11 -39 20 -46 20 -8 0 -27 10 -44 21 -26 19 -42 21 -128 20 -59 -1 -101 2 -105 8 -3 6 -31 23 -61 38 -30 14 -52 29 -49 31 3 3 24 -4 48 -16 57 -28 110 -33 115 -10 2 12 -6 20 -30 27 -18 5 -25 10 -15 10 14 1 17 6 12 21 -7 22 9 50 28 50 6 0 2 -6 -9 -14 -10 -8 -16 -18 -12 -22 4 -4 14 -2 21 5 8 6 22 9 31 5 9 -3 16 -1 16 5 0 6 -4 11 -10 11 -5 0 -10 5 -10 10 0 6 7 10 16 10 32 0 7 22 -45 40 -29 11 -59 24 -67 31 -15 12 -44 6 -44 -11 0 -6 15 -19 33 -30 17 -11 26 -20 19 -20 -13 0 -90 31 -124 50 -10 6 -24 10 -32 10 -8 0 -24 12 -36 28 -19 23 -20 27 -6 30 9 2 16 10 16 19 0 12 -7 14 -29 10 -21 -4 -37 0 -54 13 -14 11 -32 20 -40 20 -8 0 -22 11 -31 25 -9 14 -23 25 -31 25 -9 0 -15 9 -15 23 0 13 -9 32 -20 42 -22 20 -24 15 -11 -33 5 -17 6 -32 1 -32 -13 0 -20 29 -20 86 0 36 -4 54 -12 54 -7 0 -26 14 -42 30 -16 17 -34 30 -40 30 -6 0 -19 9 -31 19 -116 108 -108 96 -99 148 15 85 5 173 -19 173 -17 0 -41 -65 -42 -110 0 -54 -20 -81 -54 -74 -16 4 -32 1 -35 -5 -8 -12 -126 -15 -126 -3 0 4 4 14 9 22 13 19 2 34 -14 20 -8 -7 -23 -9 -33 -6 -12 4 -22 1 -25 -7 -8 -22 -93 -14 -120 11 -13 12 -27 22 -31 22 -4 0 -20 9 -34 21 -20 15 -26 28 -24 49 2 16 -3 42 -11 57 -23 44 -38 110 -31 138 11 44 43 99 66 111 14 8 32 9 52 3 17 -5 37 -7 46 -4 17 5 52 -34 60 -68 4 -15 20 -26 52 -36 50 -15 87 -9 70 12 -20 24 -60 107 -67 137 -4 16 -11 32 -16 35 -24 15 -3 22 59 19 54 -2 71 1 90 16 22 18 22 21 10 87 -15 82 -14 101 12 123 11 10 20 23 20 29 0 14 63 5 68 -10 7 -18 47 -8 74 18 l29 27 24 -26 c14 -15 25 -34 25 -41 0 -19 19 -34 55 -43 17 -4 42 -15 57 -25 35 -25 56 -25 34 0 -10 11 -15 24 -12 29 9 14 57 -10 51 -25 -2 -7 0 -13 6 -13 5 0 12 7 15 15 4 8 10 12 15 10 4 -3 14 3 21 14 9 14 19 19 35 15 13 -4 36 -1 51 5 22 9 35 9 65 -4 48 -20 60 -19 52 4 -4 15 0 20 17 23 17 2 23 9 22 26 0 16 5 22 21 22 20 0 55 28 55 44 0 21 59 54 107 60 28 3 68 15 87 26 33 20 66 72 66 104 0 9 7 19 15 22 22 9 19 21 -20 74 -19 26 -35 50 -35 54 0 15 33 -9 41 -30 7 -19 16 -24 44 -24 41 0 46 19 13 50 -12 11 -17 20 -11 20 7 0 21 -12 33 -27 20 -26 22 -26 58 -14 41 15 72 38 72 55 0 11 11 13 104 18 40 3 56 10 93 42 25 21 59 42 76 45 23 5 33 14 39 36 14 51 0 119 -33 154 -16 18 -37 47 -46 64 -9 18 -23 37 -30 42 -13 10 -18 65 -11 115 5 33 -16 136 -33 168 -11 18 -19 38 -19 46 0 23 -45 56 -78 56 -17 0 -34 5 -37 10 -4 6 -21 16 -38 24 -18 7 -45 25 -60 40 -25 24 -28 30 -21 71 5 36 2 52 -15 80 -12 20 -21 42 -21 50 0 7 -10 26 -23 42 -12 15 -33 49 -45 75 -28 58 -56 68 -119 45 -37 -14 -43 -14 -43 -2 0 8 7 15 15 15 8 0 24 18 35 40 19 37 19 42 5 69 -15 29 -47 43 -105 45 -23 1 -25 5 -23 40 l3 39 -46 -7 c-34 -4 -44 -3 -40 7 3 6 9 20 12 30 5 14 13 17 30 13 17 -5 24 -2 24 8 0 10 -6 13 -15 10 -12 -5 -15 3 -15 35 0 30 -5 44 -20 53 -11 7 -20 20 -20 29 0 20 31 49 53 49 23 0 21 23 -3 45 -11 10 -20 26 -20 37 0 10 -5 27 -12 38 -10 16 -9 23 12 45 23 24 23 25 3 25 -12 0 -24 7 -27 16 -9 25 -8 26 18 9 21 -14 26 -14 38 -1 25 24 82 56 101 56 11 0 15 5 11 11 -3 6 -14 9 -23 6 -9 -2 -22 2 -29 10 -14 15 -42 18 -42 4z m-69 -4710 c-12 -8 -12 -11 0 -23 8 -8 21 -17 29 -21 10 -4 8 -6 -7 -6 -12 -1 -27 8 -33 18 -15 28 -12 41 8 41 14 0 14 -2 3 -9z m174 -32 c4 -5 -3 -9 -14 -9 -26 0 -35 15 -11 17 11 1 22 -2 25 -8z m50 -9 c-3 -5 -13 -10 -21 -10 -8 0 -12 5 -9 10 3 6 13 10 21 10 8 0 12 -4 9 -10z"/>
 <path d="M4946 5121 c-9 -14 5 -19 34 -10 14 4 20 7 13 8 -6 1 -18 4 -26 7 -8 3 -18 1 -21 -5z"/>
 <path d="M3806 4935 c-9 -23 -8 -25 9 -25 17 0 19 9 6 28 -7 11 -10 10 -15 -3z"/>
 <path d="M7980 4930 c0 -5 11 -10 25 -10 14 0 25 5 25 10 0 6 -11 10 -25 10 -14 0 -25 -4 -25 -10z"/>
 <path d="M10966 4835 c-3 -9 -10 -13 -16 -10 -5 3 -10 3 -10 -1 0 -10 40 -43 61 -49 11 -4 19 -10 19 -15 0 -4 12 -11 27 -15 53 -13 138 -58 187 -98 28 -23 51 -36 55 -30 3 6 20 10 36 9 25 -1 30 -5 30 -26 0 -16 14 -39 38 -62 33 -32 38 -42 35 -77 -2 -45 4 -56 26 -48 12 5 13 13 6 37 -8 27 -7 30 5 20 15 -13 19 -8 16 23 -3 20 3 21 29 7 11 -6 21 -6 24 -1 9 14 -33 61 -54 61 -10 0 -27 11 -38 25 -11 14 -24 25 -29 25 -6 0 -18 9 -29 21 -12 13 -27 19 -41 16 -15 -3 -33 4 -51 19 -15 13 -42 31 -59 39 -18 9 -33 19 -33 23 0 4 -20 13 -44 21 -24 7 -55 24 -68 38 -42 45 -112 73 -122 48z"/>
 <path d="M10390 4707 c1 -12 7 -35 14 -52 11 -27 17 -30 64 -32 l52 -1 -15 27 c-17 34 -30 45 -77 64 -37 16 -38 16 -38 -6z"/>
 <path d="M3757 4688 c-7 -25 -3 -33 12 -23 13 8 15 45 2 45 -5 0 -11 -10 -14 -22z"/>
 <path d="M10405 4540 c-3 -5 -14 -10 -24 -10 -22 0 -55 -46 -45 -62 10 -16 11 -78 2 -78 -4 0 -8 5 -8 10 0 6 -7 10 -16 10 -12 0 -8 -9 16 -36 17 -20 29 -38 26 -41 -6 -7 -59 28 -76 51 -13 19 -15 17 -25 -34 -9 -48 -13 -55 -35 -58 -14 -2 -30 -8 -36 -13 -6 -5 -33 -4 -65 2 -30 6 -77 13 -105 17 -29 5 -70 20 -93 35 -31 21 -53 27 -94 27 -33 0 -69 8 -95 20 -85 41 -141 12 -87 -46 21 -22 25 -37 26 -83 0 -110 -2 -134 -13 -154 -8 -16 -8 -22 1 -25 6 -2 9 -8 5 -13 -3 -5 -1 -9 5 -9 5 0 12 6 15 13 4 6 4 -3 1 -21 -8 -54 14 -104 59 -138 40 -30 133 -64 175 -64 12 0 29 -10 39 -21 9 -12 25 -29 35 -38 9 -8 17 -21 17 -28 0 -7 5 -22 12 -32 11 -18 13 -18 25 -3 10 14 12 14 13 2 0 -18 107 -120 125 -120 8 0 20 8 27 18 19 27 58 35 58 12 0 -10 6 -25 13 -32 7 -7 16 -21 20 -30 3 -9 21 -21 39 -26 23 -6 32 -14 30 -25 -3 -19 18 -23 35 -6 7 7 33 13 59 15 60 5 73 17 45 40 -11 10 -21 26 -21 34 0 9 -5 21 -10 26 -13 13 100 114 128 114 30 0 40 -18 69 -136 14 -60 30 -113 34 -118 13 -15 31 35 32 86 1 34 4 47 13 44 23 -9 33 19 37 98 3 73 5 79 35 102 20 16 34 38 38 60 3 19 15 39 26 45 10 6 18 18 16 27 -1 9 5 28 15 42 26 37 23 140 -5 199 -13 26 -70 93 -131 156 -60 60 -115 122 -123 138 -12 22 -21 27 -50 27 -20 0 -47 9 -64 21 -30 23 -60 20 -60 -6 0 -12 -5 -11 -32 5 -38 23 -44 24 -53 10z"/>
 <path d="M6584 4371 c-28 -22 -39 -58 -24 -76 9 -11 7 -21 -9 -44 -12 -16 -21 -37 -21 -48 0 -10 -11 -34 -23 -53 -29 -42 -36 -70 -44 -163 -4 -48 -12 -80 -24 -96 -11 -13 -19 -30 -19 -38 0 -9 -12 -37 -26 -63 -21 -39 -25 -57 -21 -96 9 -86 26 -147 49 -171 20 -22 21 -26 8 -61 -7 -20 -13 -49 -12 -65 1 -15 -4 -41 -13 -57 -8 -16 -15 -38 -15 -48 0 -11 -23 -54 -51 -97 -47 -71 -51 -81 -45 -119 18 -110 19 -136 2 -161 -17 -26 -49 -32 -75 -16 -20 13 -51 -5 -51 -29 0 -46 -104 -54 -189 -15 -50 23 -59 25 -105 14 -45 -9 -57 -8 -99 10 -63 27 -71 24 -179 -86 -26 -26 -48 -56 -48 -65 0 -9 -8 -23 -18 -30 -10 -7 -28 -29 -40 -50 -12 -20 -29 -39 -37 -42 -9 -3 -15 -18 -15 -36 0 -17 -6 -39 -12 -51 -11 -17 -10 -22 3 -32 20 -15 44 -111 34 -135 -5 -9 -7 -27 -6 -39 1 -11 -3 -24 -8 -28 -6 -3 -11 -13 -11 -22 0 -25 50 -123 66 -130 7 -3 14 -15 14 -28 0 -12 7 -28 16 -36 8 -7 22 -25 30 -41 8 -15 21 -28 29 -28 8 0 30 -14 50 -31 29 -26 35 -38 35 -72 0 -23 0 -50 1 -60 0 -10 12 -22 27 -28 55 -20 71 -33 87 -71 14 -35 14 -41 0 -61 -9 -13 -26 -21 -42 -22 -19 0 -27 -5 -25 -14 2 -8 -2 -25 -9 -38 -10 -19 -10 -29 3 -57 13 -25 14 -43 8 -72 -6 -25 -5 -43 1 -49 6 -6 54 -9 114 -7 l103 2 11 -31 c6 -18 11 -40 11 -49 0 -20 -63 -80 -84 -80 -8 0 -16 -6 -19 -14 -6 -16 43 -29 69 -19 14 5 16 2 12 -15 -6 -23 6 -39 17 -22 15 25 85 -5 85 -37 0 -12 28 -25 43 -20 5 1 15 -12 22 -29 14 -33 66 -64 109 -64 30 0 32 -9 10 -51 -18 -36 -10 -69 17 -69 10 0 19 -4 19 -10 0 -22 18 -8 23 17 3 16 -1 32 -10 42 -14 13 -13 17 11 38 22 18 31 21 47 13 13 -8 25 -7 40 0 16 9 33 7 75 -6 43 -13 57 -14 69 -4 23 19 65 -25 58 -60 -7 -36 20 -59 49 -41 24 15 44 1 34 -24 -4 -12 -12 -15 -24 -10 -36 15 -52 17 -52 6 0 -6 5 -11 11 -11 5 0 8 -4 4 -9 -3 -5 -1 -12 4 -15 5 -4 12 -2 16 4 4 6 12 4 23 -6 12 -12 27 -15 63 -11 33 4 51 2 59 -8 6 -7 7 -15 3 -18 -9 -5 -98 7 -124 18 -10 3 -20 2 -24 -4 -3 -6 -15 -11 -25 -11 -20 0 -44 -32 -33 -43 3 -4 0 -14 -7 -22 -12 -14 -7 -22 33 -57 26 -22 47 -44 47 -49 0 -5 -14 -9 -31 -9 -32 0 -64 23 -54 39 3 6 -15 23 -39 40 -24 17 -46 36 -48 43 -8 22 3 47 23 53 29 10 22 45 -12 57 -9 4 -19 23 -23 46 -5 34 -12 43 -46 61 -25 13 -42 17 -46 10 -4 -6 -12 -2 -21 10 -18 27 -32 27 -30 0 1 -12 11 -25 24 -30 22 -8 22 -9 5 -41 -9 -18 -22 -38 -29 -45 -6 -7 -13 -18 -15 -25 -3 -9 -10 -8 -23 5 -26 27 -64 39 -97 32 -28 -6 -34 -20 -30 -68 1 -9 -3 -17 -8 -17 -6 0 -10 -11 -10 -24 0 -19 10 -30 45 -47 25 -12 45 -26 45 -31 0 -4 5 -8 10 -8 17 0 80 -44 80 -57 0 -6 14 -25 30 -42 18 -18 26 -32 20 -36 -16 -10 8 -35 34 -35 11 0 33 -6 47 -14 14 -7 42 -16 62 -20 21 -4 37 -11 37 -15 0 -5 18 -9 40 -9 29 -1 38 3 33 11 -5 9 -3 9 8 2 8 -6 23 -10 34 -9 11 1 37 2 58 3 38 1 50 16 20 24 -10 3 0 5 22 5 93 0 238 45 273 83 17 19 35 29 54 29 30 0 38 -17 13 -26 -8 -4 -12 -10 -9 -15 3 -6 0 -16 -6 -24 -10 -13 -8 -15 13 -15 14 0 32 3 41 6 19 7 21 34 4 34 -7 0 -5 5 5 11 14 8 23 7 35 -4 9 -8 44 -24 76 -36 54 -20 60 -21 69 -6 6 11 12 13 20 6 15 -11 93 -18 103 -8 14 14 26 7 21 -13 -4 -17 0 -20 31 -20 21 0 68 9 106 20 77 22 100 19 43 -5 -21 -8 -37 -22 -37 -30 0 -9 -7 -18 -16 -22 -16 -6 -15 -7 0 -18 9 -7 15 -19 14 -26 -2 -10 9 -14 42 -14 34 0 47 5 55 20 23 43 67 104 81 109 8 3 14 14 14 24 0 29 -25 45 -57 38 -21 -5 -24 -4 -13 4 22 15 76 12 90 -5 7 -8 10 -25 6 -40 -6 -22 -3 -25 22 -25 16 0 37 9 47 20 10 11 22 20 27 20 5 0 -1 -10 -12 -22 -14 -16 -37 -24 -73 -28 -42 -4 -54 -9 -64 -30 -7 -13 -20 -30 -29 -37 -13 -10 -14 -16 -6 -26 7 -8 11 -16 9 -18 -1 -3 7 5 18 17 11 13 37 25 60 28 l40 6 -40 -14 c-22 -8 -32 -14 -23 -15 9 -1 18 -5 20 -10 2 -6 27 -4 61 4 31 7 57 9 57 5 0 -5 -16 -12 -35 -16 -38 -7 -63 -28 -45 -39 5 -3 15 -3 20 0 6 3 30 3 55 -1 41 -6 44 -8 28 -19 -24 -18 -13 -26 44 -32 26 -3 53 -10 59 -14 6 -5 32 -6 57 -3 31 5 52 3 62 -6 8 -7 15 -9 16 -4 0 5 4 -1 9 -13 7 -18 17 -23 44 -23 19 0 38 4 41 10 3 5 17 10 31 10 13 0 24 4 24 8 0 5 24 7 53 5 58 -5 130 16 135 38 1 8 -13 23 -33 33 -19 11 -35 23 -35 29 0 5 10 3 23 -6 18 -11 45 -14 127 -10 58 3 113 9 122 14 24 13 111 12 103 -1 -4 -7 16 -9 61 -5 72 5 87 11 64 25 -12 8 -10 10 8 10 12 0 40 9 62 20 40 20 86 27 76 11 -3 -4 33 -7 79 -6 47 2 85 -1 85 -6 0 -5 -7 -9 -15 -9 -18 0 -20 -16 -2 -23 6 -3 2 -6 -10 -6 -24 -1 -39 -16 -24 -25 16 -10 71 6 71 20 0 10 16 14 60 14 46 0 61 4 69 17 6 10 11 12 11 6 0 -16 52 -17 67 -2 18 18 89 29 193 32 70 1 104 7 130 21 37 20 205 33 215 16 3 -4 14 -6 25 -3 11 3 18 9 15 13 -2 4 11 12 30 18 20 6 35 6 35 1 0 -5 -9 -9 -19 -9 -11 0 -23 -5 -27 -11 -4 -8 29 -9 116 -5 139 7 117 -3 328 139 72 49 132 93 132 99 0 6 -15 8 -37 6 -30 -4 -41 1 -65 26 -16 16 -26 36 -24 43 6 15 -30 18 -39 3 -10 -16 -55 -12 -61 5 -5 12 -9 13 -21 3 -11 -9 -16 -9 -23 1 -4 8 -13 10 -20 6 -9 -5 -11 -3 -6 6 3 8 9 22 12 32 4 9 17 20 30 23 14 4 30 14 37 23 6 10 20 20 30 24 20 7 23 27 5 27 -7 1 0 12 17 25 24 20 26 25 13 30 -12 5 -15 18 -12 66 3 32 2 59 -2 59 -3 0 -55 -43 -114 -95 -109 -97 -137 -139 -104 -158 8 -5 14 -24 14 -47 0 -21 5 -42 10 -45 13 -8 -29 -64 -49 -64 -11 -1 -11 2 -2 13 9 11 10 20 1 36 -11 21 -20 20 -52 -7 -9 -8 -30 -13 -49 -11 -30 4 -34 8 -36 36 -2 26 1 32 17 32 11 0 20 4 20 9 0 14 -91 26 -99 14 -9 -14 -71 -25 -71 -12 0 6 -15 10 -32 8 -18 -1 -57 -1 -85 0 -52 1 -53 2 -53 30 0 17 -4 33 -10 36 -5 3 -10 14 -10 24 0 10 -7 24 -15 31 -19 16 -10 30 18 30 12 0 33 9 47 19 22 17 25 18 36 3 10 -14 17 -13 64 10 l52 26 -7 -25 c-6 -25 -6 -25 35 7 23 18 44 39 47 46 3 7 13 16 24 19 10 4 25 17 32 30 6 13 32 38 55 55 24 17 41 34 38 38 -4 3 -12 0 -18 -6 -7 -7 -17 -12 -24 -12 -20 0 6 45 38 66 30 20 38 40 13 30 -8 -3 -15 -1 -15 4 0 21 -20 8 -41 -28 -13 -20 -25 -39 -29 -42 -3 -3 -18 -25 -35 -50 -36 -55 -105 -128 -105 -112 0 7 4 12 9 12 5 0 13 10 16 23 4 12 19 39 33 60 28 42 37 117 21 173 -5 17 -12 41 -14 54 -8 42 -39 55 -86 36 -19 -8 -40 33 -32 63 3 13 -1 29 -12 41 -16 17 -16 21 -2 35 9 8 20 15 25 15 9 0 69 70 88 104 17 29 6 46 -28 46 -21 0 -31 6 -35 20 -7 27 -33 25 -33 -2 0 -13 -7 -36 -15 -52 -9 -16 -13 -36 -10 -45 7 -18 -12 -31 -49 -31 -24 0 -28 -3 -23 -22 4 -12 1 -28 -5 -35 -17 -21 -69 -16 -95 9 l-24 22 2 -41 c2 -24 0 -45 -4 -49 -12 -12 -35 4 -48 35 -8 18 -21 31 -31 31 -26 0 -22 19 5 29 13 5 29 16 36 25 10 12 17 13 26 6 18 -15 95 -2 89 15 -3 7 -13 15 -22 17 -9 3 -23 17 -31 31 -13 24 -12 28 17 52 17 14 34 35 37 46 4 11 17 24 30 29 27 10 45 68 24 80 -8 6 -5 9 12 12 21 3 24 7 21 38 -2 19 -8 38 -14 41 -5 3 -12 26 -15 50 -7 57 -74 149 -107 149 -8 0 -18 5 -21 10 -3 6 -16 10 -29 10 -12 0 -26 4 -31 9 -6 5 -25 13 -44 18 -25 7 -35 15 -36 31 -1 12 4 27 11 33 11 9 11 16 -2 40 -16 32 -44 38 -65 13 -11 -14 -10 -20 14 -40 16 -13 23 -24 18 -24 -6 0 -13 -11 -17 -25 -4 -16 -13 -25 -26 -25 -23 0 -78 55 -78 77 0 25 37 76 74 103 19 14 39 34 44 45 5 11 15 32 22 47 27 56 3 138 -40 138 -12 0 -24 10 -29 23 -5 12 -19 30 -31 41 -18 15 -24 15 -31 5 -5 -8 -6 -21 -4 -29 3 -10 -7 -22 -29 -34 -19 -10 -36 -27 -39 -37 -3 -11 -21 -26 -41 -34 -20 -9 -36 -22 -36 -31 0 -8 -4 -12 -10 -9 -5 3 -10 17 -10 29 0 13 -7 40 -15 59 -14 34 -12 67 5 67 4 0 15 18 25 40 10 22 26 42 36 45 10 3 32 22 48 41 24 27 31 44 31 78 0 27 6 48 15 56 20 17 19 40 -2 40 -47 0 -113 -82 -113 -142 0 -29 -54 -108 -74 -108 -10 0 -13 -22 -13 -94 1 -54 -4 -100 -10 -108 -6 -7 -14 -33 -18 -58 -4 -25 -13 -54 -21 -65 -14 -19 -14 -19 -30 3 -10 14 -26 22 -45 22 -27 0 -29 -2 -29 -40 0 -26 -7 -47 -19 -59 -11 -11 -21 -27 -23 -38 -2 -10 -10 -17 -17 -15 -21 5 -51 -29 -51 -57 0 -45 -14 -57 -39 -32 -12 12 -34 21 -50 21 -42 0 -61 9 -61 31 0 10 -24 42 -53 71 -29 29 -62 65 -71 81 -10 15 -23 27 -28 27 -29 0 -42 35 -44 116 -2 84 -13 123 -51 172 -17 20 -20 21 -39 7 -12 -8 -25 -30 -28 -49 -4 -19 -17 -50 -31 -70 -13 -19 -27 -52 -31 -72 -4 -21 -20 -56 -35 -80 -16 -23 -29 -52 -29 -63 0 -12 -6 -36 -14 -54 -7 -18 -13 -52 -13 -76 0 -23 -6 -48 -12 -54 -10 -9 -12 -9 -11 3 7 51 -30 64 -71 24 -33 -32 -36 -44 -11 -44 10 -1 6 -6 -13 -14 -31 -14 -64 -42 -87 -74 -12 -17 -22 -18 -98 -12 -47 3 -96 3 -110 -1 -14 -4 -42 -10 -64 -13 -37 -4 -56 -18 -56 -43 0 -21 -21 -25 -35 -7 -10 13 -14 15 -15 5 0 -10 -3 -11 -14 -2 -11 10 -23 8 -55 -8 -22 -12 -47 -21 -55 -21 -8 0 -24 -21 -36 -46 -13 -25 -29 -48 -37 -51 -19 -7 -71 16 -56 25 5 4 17 21 26 37 9 17 26 41 40 55 13 14 22 30 20 36 -2 5 4 19 12 29 15 20 16 20 13 -1 -2 -11 2 -22 7 -23 6 -1 12 11 13 26 5 34 12 39 54 38 26 0 38 -8 63 -42 16 -23 32 -42 35 -42 3 -1 6 14 7 32 3 34 41 77 71 77 9 0 25 12 35 26 18 24 18 25 -3 59 -12 19 -26 35 -31 35 -5 0 -9 7 -9 15 0 22 -41 75 -57 75 -7 0 -13 8 -13 18 0 14 -11 21 -47 28 -39 7 -49 13 -51 31 -2 15 -12 25 -30 29 -15 4 -43 14 -62 24 -86 43 -176 74 -193 67 -14 -5 -26 -50 -30 -114 -1 -17 -16 -51 -33 -75 -17 -23 -34 -53 -38 -65 -4 -13 -12 -23 -17 -23 -22 0 -49 -42 -49 -75 0 -27 -8 -44 -35 -71 -19 -19 -35 -39 -35 -45 0 -20 -62 -97 -82 -102 -24 -7 -36 19 -20 42 31 45 62 106 62 122 0 11 4 19 10 19 15 0 50 76 50 109 0 19 8 36 24 49 13 10 30 38 36 63 8 29 25 56 53 81 22 21 44 38 48 38 4 0 18 17 30 37 16 26 19 38 11 41 -9 3 -4 12 12 29 29 29 56 27 202 -18 29 -9 38 -8 45 2 13 20 0 89 -22 121 -11 14 -19 30 -19 34 0 4 -14 36 -31 71 -23 48 -56 88 -130 161 -122 119 -174 190 -165 226 5 19 1 28 -15 37 -12 6 -17 14 -12 18 5 3 9 32 10 64 0 43 6 66 22 87 17 23 21 43 21 99 0 62 -4 75 -31 116 -17 26 -41 50 -53 55 -11 4 -47 33 -78 64 -54 52 -57 57 -47 85 6 16 9 51 7 77 -3 46 -6 50 -41 67 -21 10 -39 23 -41 30 -2 6 -9 31 -15 54 -6 23 -17 48 -24 55 -7 7 -21 27 -31 43 -30 48 -98 115 -139 136 -22 11 -75 24 -124 30 -47 5 -93 13 -102 18 -11 6 -23 4 -37 -8z m478 -2395 c-9 -19 -19 -30 -20 -25 -4 10 24 59 33 59 3 0 -3 -15 -13 -34z m-427 -100 c0 -23 7 -34 31 -48 30 -17 31 -17 51 2 12 10 34 22 50 26 15 4 32 9 38 12 5 4 16 7 25 8 8 0 34 6 57 13 36 10 46 9 68 -5 22 -14 31 -15 71 -4 32 9 48 10 56 2 14 -14 38 -117 38 -164 0 -31 -4 -38 -20 -38 -11 0 -29 5 -39 12 -15 9 -29 9 -62 -2 -33 -11 -43 -12 -47 -2 -4 14 -38 16 -47 2 -3 -5 -15 -10 -26 -10 -11 0 -24 -11 -30 -24 -7 -14 -22 -27 -35 -30 -29 -8 -32 -26 -4 -26 24 0 26 -15 4 -24 -9 -3 -14 -12 -11 -20 3 -7 0 -19 -6 -25 -16 -16 -54 -13 -61 5 -4 9 -13 14 -21 10 -8 -3 -15 -1 -15 4 0 11 29 40 41 40 5 0 9 12 9 26 0 19 -4 25 -15 20 -15 -5 -19 4 -16 37 2 15 -1 16 -21 6 -34 -15 -53 -48 -33 -55 8 -4 22 -3 31 0 8 3 12 2 9 -4 -3 -6 -18 -10 -33 -10 -37 0 -82 -51 -82 -94 0 -31 -12 -42 -91 -86 -16 -8 -37 -25 -49 -37 -11 -13 -25 -23 -30 -23 -6 0 -10 -7 -10 -15 0 -8 -7 -15 -15 -15 -19 0 -20 46 -1 57 7 4 21 23 30 41 12 23 23 32 41 32 16 0 25 6 25 15 0 8 3 15 8 15 18 0 72 41 67 51 -5 7 -11 6 -20 -1 -21 -18 -40 -2 -21 18 13 15 13 19 -2 37 -9 12 -25 24 -36 28 -14 6 -16 10 -7 21 21 25 -6 28 -48 7 -62 -32 -61 -48 1 -43 23 2 68 -15 68 -26 0 -18 -46 -57 -94 -82 -27 -14 -62 -43 -78 -65 -38 -52 -55 -57 -97 -28 -29 20 -42 22 -83 17 -47 -6 -48 -6 -48 19 0 20 -9 32 -40 49 -37 22 -58 58 -45 79 7 10 -47 69 -63 69 -5 0 -12 7 -16 15 -4 11 -20 15 -55 15 -53 0 -70 12 -51 35 20 24 108 12 182 -26 10 -5 29 -9 42 -9 14 0 27 -4 30 -8 2 -4 45 -7 95 -7 61 1 95 -2 102 -11 7 -9 17 -9 37 -2 24 9 27 16 27 55 0 28 -6 48 -15 54 -13 8 -11 12 10 29 14 11 37 20 52 20 15 0 30 5 33 10 3 6 17 10 31 10 16 0 28 8 36 25 8 19 22 27 50 31 21 4 41 11 44 16 3 5 16 8 27 6 17 -2 22 -10 22 -32z m1039 -233 c-4 -16 -13 -35 -20 -44 -8 -8 -14 -23 -14 -31 0 -9 -7 -19 -16 -22 -24 -9 -6 -26 29 -26 l32 0 -30 -24 -30 -24 -6 21 c-6 21 -7 20 -20 -8 -8 -16 -31 -45 -51 -63 -39 -35 -49 -56 -23 -46 11 5 13 2 9 -10 -5 -12 0 -16 19 -16 20 0 23 -4 20 -24 -5 -26 -50 -42 -67 -25 -6 5 -18 9 -28 9 -10 0 -18 4 -18 9 0 5 -9 12 -19 16 -28 8 -36 42 -17 64 9 10 16 23 16 30 0 7 25 37 55 67 30 30 51 54 47 54 -12 0 -30 49 -25 68 6 25 61 49 116 51 47 1 47 1 41 -26z m-798 -121 c-16 -2 -32 0 -37 5 -5 5 7 7 29 4 34 -5 35 -6 8 -9z m86 -29 c23 -21 118 -24 141 -5 21 18 110 27 135 13 28 -15 18 -46 -19 -62 -17 -6 -34 -20 -39 -29 -5 -9 -23 -23 -40 -30 -24 -10 -29 -17 -24 -34 17 -60 17 -57 -13 -51 -51 12 -74 27 -62 42 6 7 22 13 36 13 15 0 22 4 18 11 -4 6 -13 8 -21 5 -7 -3 -16 -1 -19 5 -4 5 -10 7 -15 4 -5 -3 -12 -1 -15 5 -4 7 -16 2 -31 -12 -20 -20 -21 -25 -9 -34 12 -9 8 -12 -22 -17 -39 -7 -73 12 -73 40 0 7 -7 13 -16 13 -11 0 -15 6 -11 19 3 11 -2 29 -10 41 -13 18 -13 24 1 45 14 21 33 30 75 34 8 0 23 -7 33 -16z m871 -108 c7 -21 7 -30 -1 -33 -7 -2 -12 -12 -12 -22 0 -27 -28 -32 -50 -10 -33 33 -24 83 15 93 31 7 38 3 48 -28z"/>
 <path d="M7015 1750 c-7 -11 44 -34 54 -24 6 6 -27 34 -40 34 -4 0 -11 -5 -14 -10z"/>
 <path d="M6758 1737 c-16 -6 -28 -15 -28 -20 0 -5 7 -6 16 -3 9 3 27 6 40 6 15 0 24 6 24 15 0 17 -13 18 -52 2z"/>
 <path d="M6260 1573 c0 -10 -3 -28 -6 -40 -5 -17 -2 -23 10 -23 14 0 15 -4 6 -21 -13 -23 -7 -49 10 -49 7 0 11 12 9 28 -1 15 1 34 5 44 12 28 3 73 -16 76 -12 2 -18 -3 -18 -15z"/>
 <path d="M7427 4022 c-10 -10 -17 -25 -17 -32 0 -8 -5 -28 -11 -45 -11 -28 -9 -37 16 -79 26 -44 27 -51 16 -83 -17 -47 0 -88 48 -113 20 -10 47 -30 61 -45 14 -14 33 -33 43 -43 9 -9 17 -24 17 -34 0 -23 27 -23 34 0 12 41 18 135 9 129 -6 -4 -15 13 -22 36 -7 23 -19 62 -28 87 -67 196 -72 205 -100 222 -35 23 -46 22 -66 0z"/>
 <path d="M11391 3900 c-33 -39 -41 -53 -41 -69 0 -8 9 -5 25 10 13 13 25 29 25 35 0 7 9 14 20 17 22 6 28 37 8 37 -7 -1 -24 -14 -37 -30z"/>
 <path d="M11825 3769 c-8 -11 25 -40 37 -33 14 9 9 32 -8 38 -21 8 -22 8 -29 -5z"/>
 <path d="M11872 3719 c2 -7 10 -15 17 -17 8 -3 12 1 9 9 -2 7 -10 15 -17 17 -8 3 -12 -1 -9 -9z"/>
 <path d="M11501 3677 c-6 -8 -8 -17 -4 -20 12 -13 22 -7 20 13 -2 24 -1 24 -16 7z"/>
 <path d="M296 3605 c-11 -8 -15 -15 -9 -15 19 0 43 12 43 21 0 13 -12 11 -34 -6z"/>
 <path d="M10317 3523 c-14 -13 -6 -23 18 -23 28 0 34 15 9 24 -19 7 -19 7 -27 -1z"/>
 <path d="M10060 3490 c0 -5 7 -10 16 -10 10 0 14 -6 11 -15 -8 -20 69 -75 105 -75 34 0 37 16 6 25 -13 4 -46 25 -75 46 -55 41 -63 45 -63 29z"/>
 <path d="M11360 3485 c-14 -16 -3 -20 19 -6 8 5 9 11 3 15 -5 3 -15 -1 -22 -9z"/>
 <path d="M10940 3467 c-39 -12 -48 -20 -74 -59 -9 -14 -29 -29 -44 -33 -22 -5 -32 -1 -53 24 -31 37 -93 45 -102 12 -5 -20 -48 -33 -68 -20 -22 13 -31 -2 -13 -22 9 -10 21 -16 25 -13 17 10 9 -23 -13 -56 -15 -22 -35 -37 -58 -42 -19 -5 -46 -14 -59 -21 -13 -7 -32 -11 -41 -9 -10 2 -20 -5 -24 -15 -3 -10 -9 -23 -12 -30 -3 -7 6 -13 23 -16 l28 -4 -28 -2 c-15 0 -37 -9 -48 -20 -19 -17 -19 -20 -4 -35 17 -17 36 -20 72 -10 16 4 23 16 28 44 4 22 14 45 22 52 13 11 18 9 31 -10 8 -12 19 -22 25 -22 5 0 15 -7 21 -16 13 -17 8 -18 134 37 23 11 50 19 60 19 10 0 45 26 79 58 50 47 60 62 56 83 -3 19 4 34 34 65 21 21 44 47 52 57 16 20 6 21 -49 4z"/>
 <path d="M9960 3445 c-7 -9 -10 -18 -7 -21 7 -8 47 14 47 26 0 15 -26 12 -40 -5z"/>
 <path d="M11307 3453 c-13 -13 -7 -21 13 -16 16 4 19 2 14 -11 -3 -9 -2 -16 4 -16 18 0 20 24 3 37 -19 14 -25 16 -34 6z"/>
 <path d="M9840 3412 c0 -4 5 -14 10 -22 8 -12 12 -13 19 -2 7 11 12 11 28 1 21 -13 53 -7 53 11 0 5 -10 11 -22 11 -13 1 -38 3 -55 5 -18 1 -33 -1 -33 -4z"/>
 <path d="M9970 3411 c0 -16 25 -27 60 -26 41 2 51 17 18 27 -35 9 -78 9 -78 -1z"/>
 <path d="M9695 3389 c-22 -5 -66 -13 -97 -19 -32 -6 -69 -15 -83 -20 -22 -9 -24 -12 -13 -30 15 -23 76 -28 96 -8 7 7 40 13 74 14 44 1 65 6 73 18 7 9 22 16 34 16 11 0 21 5 21 10 0 6 7 10 15 10 8 0 15 4 15 8 0 12 -85 12 -135 1z"/>
 <path d="M11274 3386 c-10 -8 -15 -18 -11 -22 4 -4 17 2 30 14 24 25 12 30 -19 8z"/>
 <path d="M10346 3378 c16 -28 27 -38 36 -32 5 3 2 14 -8 25 -19 21 -39 26 -28 7z"/>
 <path d="M10180 3370 c0 -5 7 -10 15 -10 8 0 15 5 15 10 0 6 -7 10 -15 10 -8 0 -15 -4 -15 -10z"/>
 <path d="M11216 3354 c-9 -24 0 -29 19 -11 19 19 19 27 1 27 -8 0 -17 -7 -20 -16z"/>
 <path d="M9755 3340 c-3 -5 3 -10 14 -10 12 0 21 5 21 10 0 6 -6 10 -14 10 -8 0 -18 -4 -21 -10z"/>
 <path d="M10450 3331 c0 -5 9 -19 20 -32 21 -26 27 -11 10 22 -11 19 -30 26 -30 10z"/>
 <path d="M11153 3322 c-7 -11 -8 -24 -2 -33 7 -11 11 -10 23 6 9 11 16 26 16 33 0 18 -24 14 -37 -6z"/>
 <path d="M10947 3303 c-16 -15 -5 -23 31 -23 38 -1 72 -19 72 -39 0 -17 20 -13 27 6 10 24 -44 63 -88 63 -20 0 -39 -3 -42 -7z"/>
 <path d="M10069 3283 c-11 -13 -11 -17 -1 -20 6 -3 12 -10 12 -16 0 -8 -4 -7 -12 1 -20 20 -26 14 -33 -28 -10 -58 -25 -49 -25 15 0 48 -2 55 -20 55 -18 0 -20 -4 -14 -40 6 -34 4 -40 -11 -40 -14 0 -16 -6 -10 -42 4 -24 11 -47 16 -52 5 -6 9 -20 9 -32 0 -13 12 -31 26 -41 22 -17 33 -18 76 -9 43 9 51 8 59 -7 6 -9 17 -17 25 -17 12 0 13 4 3 23 -17 32 -25 35 -95 33 -51 -1 -64 2 -64 14 1 34 15 42 47 24 32 -19 82 -12 53 6 -11 7 -12 10 -2 10 7 0 11 4 8 9 -3 5 -14 7 -24 4 -27 -7 -47 21 -27 37 8 7 15 21 15 31 0 9 7 24 15 33 11 11 13 21 5 40 -11 31 -13 31 -31 9z"/>
 <path d="M9423 3246 c-23 -23 -54 -66 -69 -96 -14 -30 -34 -64 -44 -75 -10 -11 -20 -32 -24 -47 -3 -16 -13 -28 -21 -28 -8 0 -15 -7 -15 -15 0 -9 -18 -33 -40 -55 -23 -23 -40 -49 -40 -62 0 -17 3 -19 12 -10 7 7 22 12 34 12 15 0 42 20 75 55 28 30 60 57 71 61 23 7 58 40 58 54 0 6 7 10 15 10 9 0 15 9 15 25 0 14 4 25 8 25 4 0 13 14 20 32 11 31 12 31 27 13 15 -20 15 -20 30 -1 8 11 15 27 15 37 0 9 -7 19 -15 23 -10 3 -15 19 -15 46 0 37 -2 40 -27 38 -18 0 -43 -16 -70 -42z"/>
 <path d="M11090 3240 c0 -19 3 -21 12 -12 9 9 9 15 0 24 -9 9 -12 7 -12 -12z"/>
 <path d="M9803 3216 c-6 -7 -39 -16 -72 -20 -56 -6 -61 -9 -66 -34 -4 -15 -13 -42 -22 -60 -31 -63 -14 -124 28 -101 25 13 26 12 33 -16 4 -14 14 -25 22 -25 18 0 115 -94 133 -129 16 -28 25 -27 72 11 37 30 39 33 23 45 -10 7 -14 13 -8 13 5 0 -1 8 -13 18 l-22 17 20 42 c10 23 24 45 29 48 15 9 2 25 -21 25 -14 0 -19 7 -19 30 0 19 -7 34 -20 42 -11 7 -20 22 -20 34 0 25 -36 74 -53 74 -7 -1 -17 -7 -24 -14z"/>
 <path d="M10315 3218 c-16 -6 -36 -12 -43 -14 -21 -6 -3 -24 24 -24 33 0 64 17 64 35 0 17 -3 17 -45 3z"/>
 <path d="M10205 3209 c-4 -6 -4 -13 -1 -16 8 -8 36 5 36 17 0 13 -27 13 -35 -1z"/>
 <path d="M11046 3204 c-11 -7 -16 -17 -13 -21 4 -4 15 1 24 10 22 21 14 30 -11 11z"/>
 <path d="M9572 3188 c6 -18 28 -21 28 -4 0 9 -7 16 -16 16 -9 0 -14 -5 -12 -12z"/>
 <path d="M10886 3163 c-3 -3 -3 -10 0 -14 7 -12 34 -11 34 0 0 11 -26 22 -34 14z"/>
 <path d="M10325 3151 c-7 -12 12 -24 25 -16 11 7 4 25 -10 25 -5 0 -11 -4 -15 -9z"/>
 <path d="M10140 3140 c0 -5 6 -10 14 -10 8 0 18 5 21 10 3 6 -3 10 -14 10 -12 0 -21 -4 -21 -10z"/>
 <path d="M10240 3140 c0 -14 15 -19 29 -11 9 6 7 10 -8 14 -12 3 -21 1 -21 -3z"/>
 <path d="M9275 3129 c-4 -6 -5 -13 -2 -16 7 -7 27 6 27 18 0 12 -17 12 -25 -2z"/>
 <path d="M2950 3084 c0 -14 4 -23 10 -19 6 3 10 15 10 26 0 10 -4 19 -10 19 -5 0 -10 -12 -10 -26z"/>
 <path d="M10255 3102 c-18 -13 -17 -84 1 -104 20 -22 42 -25 24 -3 -9 10 -9 15 -1 15 6 0 11 14 11 30 0 17 -4 30 -9 30 -5 0 -11 9 -13 20 -2 11 -7 16 -13 12z"/>
 <path d="M10344 3093 c3 -19 21 -29 29 -16 3 5 -3 14 -13 20 -15 10 -18 9 -16 -4z"/>
 <path d="M10141 2839 c-12 -12 -20 -27 -17 -35 4 -10 -3 -14 -24 -14 -17 0 -30 5 -30 10 0 6 -4 10 -10 10 -5 0 -10 -9 -10 -20 0 -11 5 -20 11 -20 6 0 17 -6 25 -14 7 -8 23 -12 34 -9 16 4 23 0 27 -16 8 -32 27 -25 46 17 27 62 21 101 -12 70 -10 -11 -11 -8 -6 15 8 32 -3 35 -34 6z"/>
 <path d="M8649 2823 c-6 -70 -3 -123 7 -123 15 0 57 93 52 116 -5 26 -57 33 -59 7z"/>
 <path d="M9880 2751 c0 -6 5 -13 11 -16 6 -4 24 -25 40 -47 29 -41 42 -30 17 14 -23 39 -68 72 -68 49z"/>
 <path d="M10060 2725 c-10 -12 -10 -19 -2 -27 17 -17 15 -29 -5 -26 -14 2 -18 -4 -18 -29 0 -18 2 -33 4 -33 2 0 14 11 27 25 13 14 25 25 28 25 3 0 13 -17 21 -37 12 -28 18 -34 27 -25 12 12 15 79 3 90 -3 3 -10 0 -14 -7 -5 -8 -11 -9 -15 -3 -3 5 1 13 10 16 8 3 12 11 9 17 -4 6 -13 8 -20 5 -7 -2 -16 2 -19 10 -7 18 -20 18 -36 -1z"/>
 <path d="M9050 2607 c0 -34 7 -50 19 -42 10 6 0 75 -10 75 -5 0 -9 -15 -9 -33z"/>
 <path d="M10077 2623 c-4 -3 -7 -19 -7 -34 0 -20 -4 -27 -14 -23 -8 3 -17 1 -21 -5 -3 -6 -15 -11 -26 -11 -10 0 -19 -7 -19 -15 0 -8 -7 -15 -15 -15 -19 0 -43 -48 -29 -58 5 -4 9 -25 9 -47 0 -36 3 -40 26 -43 37 -4 58 45 40 94 -15 41 -10 51 39 70 39 16 52 39 43 74 -5 21 -15 25 -26 13z"/>
 <path d="M7750 2600 c0 -5 10 -10 23 -10 18 0 19 2 7 10 -19 13 -30 13 -30 0z"/>
 <path d="M9993 2584 c-10 -22 -10 -25 3 -20 9 3 18 6 20 6 2 0 4 9 4 20 0 28 -13 25 -27 -6z"/>
 <path d="M3445 2392 c-13 -13 -3 -22 25 -22 17 0 30 4 30 9 0 10 -47 21 -55 13z"/>
 <path d="M3650 2390 c0 -6 -6 -10 -12 -9 -35 4 -78 -2 -78 -12 0 -6 14 -9 33 -8 24 3 31 0 29 -11 -2 -8 -8 -16 -13 -18 -5 -2 -9 -8 -9 -13 0 -17 84 -6 122 15 50 27 49 44 -1 41 -26 -1 -42 3 -45 11 -6 16 -26 19 -26 4z"/>
 <path d="M3805 2379 c-10 -15 -2 -19 23 -12 12 3 19 9 16 14 -7 12 -31 11 -39 -2z"/>
 <path d="M884 2346 c-3 -9 -1 -23 5 -30 10 -11 7 -18 -11 -30 -12 -9 -17 -16 -11 -16 15 0 53 40 53 56 0 6 -7 17 -15 24 -12 10 -16 9 -21 -4z"/>
 <path d="M3457 2292 c-10 -10 -17 -24 -17 -30 0 -7 -12 -12 -26 -12 -14 0 -23 -4 -19 -10 4 -6 -7 -10 -24 -10 -17 0 -31 -4 -31 -10 0 -12 -37 -13 -42 -1 -5 13 -48 24 -48 12 0 -36 143 -60 156 -26 4 8 13 15 21 15 8 0 27 8 41 18 15 10 44 26 65 36 50 23 47 36 -11 36 -35 0 -54 -5 -65 -18z"/>
 <path d="M3290 2250 c0 -5 7 -10 15 -10 8 0 15 5 15 10 0 6 -7 10 -15 10 -8 0 -15 -4 -15 -10z"/>
 <path d="M9919 2217 c-15 -32 -1 -92 21 -92 11 0 15 12 14 48 -2 61 -18 81 -35 44z"/>
 <path d="M3500 2070 c0 -11 5 -20 10 -20 6 0 10 9 10 20 0 11 -4 20 -10 20 -5 0 -10 -9 -10 -20z"/>
 <path d="M5530 1993 c0 -5 8 -17 17 -28 14 -18 15 -18 9 -2 -3 10 -6 23 -6 28 0 5 -4 9 -10 9 -5 0 -10 -3 -10 -7z"/>
 <path d="M10157 1894 c-4 -4 -7 -22 -7 -41 0 -18 -4 -33 -10 -33 -5 0 -10 5 -10 10 0 6 -4 10 -10 10 -13 0 -13 -37 0 -45 5 -3 22 0 37 7 24 12 30 11 51 -9 13 -12 30 -19 38 -16 20 8 12 39 -9 35 -10 -2 -17 4 -17 14 0 10 -5 14 -14 11 -11 -4 -16 3 -18 25 -3 31 -17 45 -31 32z"/>
 <path d="M10273 1781 c-6 -25 -39 -27 -67 -6 -21 16 -58 20 -69 8 -4 -4 5 -19 20 -35 20 -21 36 -28 64 -28 34 0 38 -3 41 -27 2 -17 9 -28 18 -28 29 -1 40 -16 35 -48 -4 -17 -11 -37 -16 -44 -15 -18 -7 -57 14 -61 10 -2 17 3 17 12 0 8 8 17 18 20 20 7 56 72 47 86 -3 5 2 29 10 54 16 45 13 72 -6 61 -5 -4 -9 -2 -9 3 0 15 -50 24 -64 13 -9 -8 -12 -5 -12 11 1 30 -33 37 -41 9z"/>
 <path d="M10256 1495 c-17 -13 -17 -18 -6 -45 11 -25 10 -34 -5 -56 -23 -36 -10 -42 35 -16 21 12 55 22 74 22 20 0 36 4 36 9 0 5 3 16 6 24 3 9 -3 16 -16 20 -12 3 -19 10 -16 16 11 18 -14 23 -38 8 -12 -9 -28 -12 -35 -8 -10 6 -9 10 4 15 18 6 12 26 -8 26 -7 0 -20 -7 -31 -15z"/>
 <path d="M10405 1386 c-5 -11 -3 -21 6 -26 15 -10 36 -1 22 9 -6 3 -12 13 -15 21 -5 12 -7 12 -13 -4z"/>
 <path d="M4196 1331 c-6 -10 19 -41 33 -41 4 0 7 10 6 23 -2 23 -28 36 -39 18z"/>
 <path d="M4422 1289 c-7 -19 -9 -19 -21 -5 -17 20 -35 21 -27 1 4 -12 -5 -15 -49 -15 -30 0 -55 -3 -55 -8 0 -12 114 -129 133 -136 22 -7 22 2 0 26 -20 22 -6 42 30 43 18 0 21 5 19 29 -2 16 2 32 8 36 9 6 9 12 -1 29 -17 27 -28 27 -37 0z"/>
 <path d="M2345 1213 c-38 -41 -49 -63 -31 -63 40 0 86 43 86 80 0 19 -30 10 -55 -17z"/>
 <path d="M4160 1195 c-10 -12 -9 -15 7 -15 10 0 28 7 39 15 18 14 18 14 -7 15 -15 0 -32 -7 -39 -15z"/>
 <path d="M10490 1175 c0 -8 -5 -15 -12 -15 -6 0 -9 -2 -6 -5 3 -3 13 -3 22 1 17 7 22 34 6 34 -5 0 -10 -7 -10 -15z"/>
 <path d="M5840 1171 c0 -5 15 -18 33 -30 l32 -21 -29 0 c-28 0 -28 -1 -12 -19 9 -10 16 -25 14 -32 -2 -8 7 -15 20 -17 25 -4 26 -6 10 -31 -7 -11 -18 -16 -31 -13 -16 4 -18 1 -12 -17 4 -12 2 -21 -4 -21 -6 0 -11 -6 -11 -13 0 -8 -9 -24 -20 -37 -11 -13 -20 -29 -20 -37 0 -16 26 -17 34 0 5 10 7 10 12 0 8 -19 65 -17 58 1 -4 11 0 13 15 9 26 -7 29 22 6 48 -15 15 -14 17 10 23 14 4 25 11 25 18 0 6 14 25 30 42 69 70 67 66 49 79 -9 7 -14 18 -12 25 3 6 -1 13 -9 14 -45 5 -66 7 -88 9 -14 1 -29 6 -35 9 -18 13 -65 21 -65 11z"/>
 <path d="M5704 1109 c-4 -7 4 -20 17 -30 13 -10 19 -19 13 -19 -6 0 -11 -12 -11 -26 0 -22 3 -25 24 -19 17 4 23 2 18 -6 -4 -6 -1 -15 6 -20 37 -23 94 5 70 34 -6 8 -8 16 -6 19 12 12 -15 58 -34 58 -11 0 -23 5 -26 10 -8 14 -62 13 -71 -1z"/>
 <path d="M3700 1070 c0 -5 7 -10 15 -10 8 0 15 5 15 10 0 6 -7 10 -15 10 -8 0 -15 -4 -15 -10z"/>
 <path d="M1300 1045 c7 -8 16 -12 21 -9 13 8 1 24 -18 24 -13 0 -13 -3 -3 -15z"/>
 <path d="M2265 1050 c-4 -6 6 -10 22 -10 22 0 25 2 13 10 -19 12 -27 12 -35 0z"/>
 <path d="M1414 1006 c23 -18 36 -20 36 -6 0 6 -4 10 -9 10 -5 0 -18 3 -28 6 -16 5 -16 4 1 -10z"/>
 <path d="M2318 998 c-9 -21 8 -46 22 -32 7 7 6 16 -3 28 -12 16 -15 16 -19 4z"/>
 <path d="M2325 940 c3 -5 13 -10 21 -10 8 0 14 5 14 10 0 6 -9 10 -21 10 -11 0 -17 -4 -14 -10z"/>
 <path d="M6497 916 c-7 -19 11 -32 24 -19 6 6 5 14 -4 22 -12 9 -16 8 -20 -3z"/>
 <path d="M1820 913 c1 -12 70 -44 70 -33 0 6 -5 10 -11 10 -6 0 -17 7 -25 15 -16 16 -34 20 -34 8z"/>
 <path d="M1560 820 c0 -5 9 -10 21 -10 11 0 17 5 14 10 -3 6 -13 10 -21 10 -8 0 -14 -4 -14 -10z"/>
 <path d="M4816 801 c-11 -12 -26 -16 -46 -13 -25 4 -31 0 -41 -24 -6 -16 -17 -40 -23 -53 -6 -13 -10 -33 -8 -43 2 -11 -2 -26 -9 -34 -9 -11 -9 -18 -1 -26 6 -6 8 -17 5 -25 -7 -19 33 -52 64 -53 26 0 39 -18 24 -33 -8 -8 -11 -8 -11 1 0 7 -14 12 -35 12 -40 0 -44 -8 -14 -34 17 -14 26 -16 45 -7 19 8 24 8 24 -4 0 -17 -31 -28 -55 -19 -16 6 -17 4 -10 -17 16 -51 11 -91 -15 -110 -29 -22 -97 -29 -155 -17 -30 7 -42 6 -50 -5 -5 -7 -17 -16 -25 -20 -8 -3 5 -6 30 -6 71 -2 87 -21 18 -21 -80 0 -73 -17 10 -25 37 -3 74 -7 82 -8 8 -1 16 -10 18 -20 3 -16 -1 -17 -35 -12 -21 4 -48 12 -61 18 -17 8 -31 8 -55 -1 -29 -11 -34 -10 -62 18 -17 17 -40 30 -51 30 -11 0 -29 9 -41 19 -29 27 -122 53 -107 30 4 -8 -19 -9 -80 -5 -82 5 -115 -4 -63 -19 48 -14 92 -39 75 -43 -9 -2 -26 2 -37 7 -11 6 -30 11 -42 11 -25 0 -76 -49 -56 -55 6 -2 32 -11 57 -20 41 -15 48 -15 75 -1 41 22 52 20 30 -4 -18 -20 -17 -20 37 -20 31 0 93 -6 139 -14 87 -15 368 -16 401 -1 31 13 8 25 -48 25 -30 0 -54 4 -54 8 0 11 131 -2 157 -16 27 -15 112 -16 149 -2 21 8 31 7 43 -4 12 -11 21 -12 34 -5 12 7 22 7 30 1 7 -6 23 -11 37 -11 14 -1 50 -4 80 -7 108 -10 344 -8 370 3 23 11 22 12 -18 12 -26 1 -41 5 -37 11 3 6 17 7 31 4 14 -4 24 -2 24 5 0 6 -5 11 -12 11 -6 0 -9 2 -6 5 3 3 31 -1 64 -10 63 -16 130 -20 138 -7 3 4 -24 17 -60 28 -42 12 -63 23 -59 32 2 7 -4 18 -15 24 -24 15 -26 28 -4 28 14 0 14 2 0 22 -14 19 -14 23 2 34 15 12 15 13 -6 14 -13 0 -30 7 -38 15 -9 8 -24 15 -35 15 -11 0 -22 7 -26 16 -4 12 -14 14 -39 9 -41 -7 -45 9 -7 27 37 18 43 48 10 48 -14 0 -30 -7 -37 -15 -7 -8 -16 -15 -21 -15 -5 0 -9 7 -9 15 0 8 -9 15 -19 15 -11 0 -22 3 -24 8 -3 4 23 5 56 4 34 -2 60 -2 57 1 -19 18 -151 60 -194 61 -54 1 -55 1 -100 41 -16 14 -37 25 -47 25 -9 0 -19 6 -22 13 -3 9 -9 9 -25 0 -16 -10 -21 -9 -25 1 -3 8 -21 16 -41 20 -24 5 -37 14 -42 29 -7 25 -38 57 -53 57 -6 0 -8 6 -5 13 5 14 -40 60 -68 70 -9 3 -23 -2 -32 -12z m-556 -581 c-9 -4 -31 -5 -50 0 -34 8 -33 8 15 9 34 0 45 -3 35 -9z m16 -23 c18 3 35 0 38 -6 5 -7 -11 -11 -48 -11 -44 0 -56 3 -56 15 0 12 4 13 18 7 9 -5 31 -7 48 -5z"/>
 <path d="M3916 762 c-3 -6 -1 -14 5 -17 15 -10 25 3 12 16 -7 7 -13 7 -17 1z"/>
 <path d="M3830 741 c0 -10 25 -21 48 -21 15 1 14 3 -2 15 -22 17 -46 20 -46 6z"/>
 <path d="M1600 710 c-12 -8 -9 -10 13 -10 15 0 27 5 27 10 0 13 -20 13 -40 0z"/>
 <path d="M3798 703 c-20 -5 -25 -23 -7 -23 6 0 24 -11 41 -25 16 -14 35 -25 42 -25 7 0 25 11 40 25 15 14 32 25 37 25 6 0 9 6 6 13 -4 13 -55 11 -73 -4 -6 -5 -15 -5 -20 0 -13 12 -46 19 -66 14z"/>
 <path d="M5419 681 c-29 -32 -30 -51 -4 -63 13 -6 32 -7 42 -3 10 5 23 7 28 6 6 -2 29 -4 52 -6 24 -2 47 -6 53 -10 9 -6 25 1 59 24 11 7 10 14 -7 38 -19 28 -23 28 -114 30 -77 1 -96 -2 -109 -16z"/>
 <path d="M1561 671 c-7 -5 -10 -14 -7 -20 5 -7 -2 -11 -19 -11 -15 0 -24 -4 -20 -10 3 -5 2 -10 -4 -10 -5 0 -14 7 -19 16 -6 10 -19 14 -37 12 -26 -3 -21 -8 66 -66 101 -66 116 -69 152 -29 9 11 17 24 17 29 0 4 8 8 18 8 18 0 42 18 42 32 0 4 -17 10 -37 13 -21 4 -55 15 -76 26 -43 21 -56 23 -76 10z"/>
 <path d="M3256 526 c5 -13 0 -16 -25 -16 -17 0 -31 -4 -31 -10 0 -6 28 -10 65 -10 42 0 65 -4 65 -11 0 -8 -18 -10 -60 -6 -37 4 -60 3 -60 -3 0 -6 9 -10 20 -10 21 0 29 -20 8 -20 -7 0 -4 -6 7 -12 27 -16 125 -38 125 -29 0 4 26 7 58 7 49 -1 57 2 54 17 -4 26 17 20 28 -8 13 -34 50 -34 50 -1 0 14 -4 28 -10 31 -17 11 -11 23 15 29 26 7 35 26 12 26 -8 0 -29 7 -47 17 -25 12 -40 14 -60 6 -25 -9 -45 -8 -173 12 -42 7 -47 6 -41 -9z"/>
 <path d="M3600 525 c0 -3 12 -10 26 -16 29 -10 68 -3 59 12 -6 9 -85 13 -85 4z"/>
 <path d="M7180 515 c0 -17 2 -18 24 -9 23 9 20 24 -4 24 -11 0 -20 -7 -20 -15z"/>
 <path d="M7420 497 c-22 -9 -23 -11 -6 -14 10 -3 23 0 29 6 16 16 5 20 -23 8z"/>
 <path d="M7325 473 c-16 -2 -37 -7 -45 -10 -8 -3 -17 -7 -20 -8 -31 -8 -50 -18 -50 -26 0 -5 4 -9 9 -9 5 0 12 -11 15 -24 3 -14 19 -38 36 -54 28 -29 47 -35 156 -47 12 -2 30 -8 41 -13 11 -6 25 -7 33 -2 21 13 4 25 -55 40 -68 17 -107 35 -128 60 -25 29 -18 50 20 69 29 14 45 33 26 30 -5 -1 -21 -4 -38 -6z"/>
 <path d="M1720 462 c0 -19 49 -32 77 -21 26 10 27 12 8 19 -27 11 -85 12 -85 2z"/>
 <path d="M3091 443 c-9 -17 -3 -23 45 -46 30 -15 54 -32 54 -38 0 -8 22 -9 78 -4 110 10 117 22 22 40 -19 4 -53 15 -75 25 -22 10 -49 20 -60 23 -11 3 -28 8 -37 12 -11 4 -20 0 -27 -12z"/>
 <path d="M3659 424 c-22 -24 -23 -26 -4 -24 34 4 46 0 40 -10 -4 -6 6 -10 22 -11 15 0 39 -2 53 -3 14 -2 28 1 31 6 4 7 14 6 27 -1 24 -13 111 -21 117 -11 6 9 -73 45 -81 37 -4 -3 -16 0 -28 8 -28 20 -36 19 -36 -5 0 -13 -7 -20 -20 -20 -13 0 -17 5 -14 14 6 15 -14 29 -57 39 -20 5 -32 1 -50 -19z"/>
 <path d="M3587 393 c-14 -13 -6 -23 18 -23 28 0 34 15 9 24 -19 7 -19 7 -27 -1z"/>
 <path d="M3440 352 c0 -6 8 -13 18 -16 9 -3 -5 -3 -32 -1 -55 6 -54 -2 2 -22 44 -15 98 -17 107 -3 11 18 52 11 58 -10 6 -24 37 -27 37 -4 0 11 6 14 20 9 20 -6 28 9 10 20 -5 3 -45 10 -88 15 -43 5 -90 12 -105 15 -16 4 -27 3 -27 -3z"/>
 <path d="M4015 351 c-3 -5 -13 -7 -23 -5 -22 5 -53 -15 -34 -23 24 -10 11 -23 -23 -23 -19 0 -35 -4 -35 -10 0 -11 37 -13 93 -4 22 4 37 12 37 20 0 11 18 13 94 9 72 -4 96 -2 105 9 16 19 -38 41 -76 31 -41 -11 -85 -12 -110 -4 -12 5 -25 4 -28 0z"/>
 <path d="M9093 344 c-17 -7 -34 -18 -38 -24 -10 -16 18 -22 48 -11 15 6 27 7 27 1 0 -5 13 -5 32 1 18 5 45 9 60 9 31 0 38 16 11 23 -10 3 -36 5 -57 6 -22 1 -42 3 -45 5 -3 2 -20 -3 -38 -10z"/>
 <path d="M9332 350 c-12 -5 -28 -7 -36 -4 -8 3 -17 1 -21 -5 -4 -7 5 -11 23 -11 46 0 92 11 86 21 -6 11 -22 11 -52 -1z"/>
 <path d="M3860 341 c0 -11 49 -21 55 -11 5 9 -18 20 -41 20 -8 0 -14 -4 -14 -9z"/>
 <path d="M3772 318 c3 -20 10 -23 53 -26 l50 -2 -30 25 c-39 33 -78 34 -73 3z"/>
 <path d="M3720 305 c-10 -12 -10 -15 3 -15 19 0 31 16 18 24 -5 3 -14 -1 -21 -9z"/>
 <path d="M3315 300 c3 -5 15 -10 25 -10 10 0 31 -5 47 -11 15 -6 50 -13 77 -14 42 -2 47 0 32 11 -31 22 -194 44 -181 24z"/>
 <path d="M6333 280 c-23 -9 -32 -30 -13 -30 6 0 10 -5 10 -10 0 -7 -6 -7 -18 -1 -20 11 -86 -15 -76 -30 7 -12 41 -11 49 1 5 8 11 8 20 0 10 -8 15 -8 20 0 5 8 11 8 21 -1 11 -9 18 -9 26 -1 17 17 28 15 22 -3 -5 -13 8 -15 85 -15 50 0 91 4 91 9 0 17 -57 30 -96 21 -43 -10 -61 -5 -21 5 26 7 42 29 31 46 -9 16 -33 10 -44 -11 -14 -26 -23 -25 -35 3 -11 24 -38 31 -72 17z"/>
 <path d="M3587 263 c-31 -8 -8 -22 28 -16 28 4 35 2 35 -11 0 -10 9 -16 25 -16 14 0 25 5 25 10 0 6 -6 10 -14 10 -8 0 -16 4 -18 10 -4 12 -56 20 -81 13z"/>
 <path d="M3960 260 c12 -8 11 -10 -7 -10 -13 0 -23 -4 -23 -10 0 -5 13 -10 29 -10 20 0 30 6 34 20 4 16 0 20 -21 20 -21 0 -24 -2 -12 -10z"/>
 <path d="M3850 249 c0 -7 -10 -9 -30 -5 -32 6 -39 -4 -16 -23 21 -18 88 -3 84 18 -4 18 -38 28 -38 10z"/>
 <path d="M8135 250 c-15 -24 13 -38 55 -27 47 13 53 27 11 27 -16 0 -36 3 -44 6 -8 3 -18 0 -22 -6z"/>
 <path d="M8013 228 c-35 -5 -63 -14 -63 -19 0 -5 -11 -9 -24 -9 -33 0 -42 -16 -13 -24 38 -10 81 -6 101 9 11 8 32 15 47 15 27 0 54 21 42 33 -7 8 -5 8 -90 -5z"/>
 <path d="M6955 190 c-4 -6 5 -10 19 -10 14 0 26 5 26 10 0 6 -9 10 -19 10 -11 0 -23 -4 -26 -10z"/>
 <path d="M7230 190 c0 -5 9 -10 20 -10 11 0 20 5 20 10 0 6 -9 10 -20 10 -11 0 -20 -4 -20 -10z"/>
 <path d="M7295 180 c3 -5 13 -10 21 -10 8 0 12 5 9 10 -3 6 -13 10 -21 10 -8 0 -12 -4 -9 -10z"/>
 </g>

</svg>